<?xml version="1.0" standalone="no"?>
<!DOCTYPE svg PUBLIC "-//W3C//DTD SVG 20010904//EN"
 "http://www.w3.org/TR/2001/REC-SVG-20010904/DTD/svg10.dtd">
<svg version="1.0" xmlns="http://www.w3.org/2000/svg"
 width="600.000000pt" height="600.000000pt" viewBox="0 0 600.000000 600.000000"
 preserveAspectRatio="xMidYMid meet">
<metadata>
Created by potrace 1.14, written by Peter Selinger 2001-2017
</metadata>
<g transform="translate(0.000000,600.000000) scale(0.100000,-0.100000)"
fill="#000000" stroke="none">
<path d="M2625 5723 c-915 -98 -1697 -643 -2096 -1458 -276 -566 -340 -1191
-184 -1800 97 -379 283 -737 535 -1030 135 -156 484 -502 600 -595 115 -92
283 -204 400 -268 247 -134 572 -242 871 -288 146 -23 588 -26 724 -5 492 74
879 235 1258 523 305 232 595 593 754 938 173 373 243 697 243 1120 0 206 -8
303 -40 491 -74 434 -302 903 -606 1245 -78 88 -328 340 -448 452 -365 339
-855 574 -1371 658 -97 15 -544 28 -640 17z m570 -69 c387 -47 769 -191 1102
-413 165 -110 208 -148 97 -86 -622 352 -1401 431 -2069 210 -608 -200 -1100
-585 -1428 -1117 -283 -458 -417 -981 -387 -1514 18 -317 84 -600 205 -884 34
-81 120 -247 154 -300 9 -14 11 -21 4 -17 -21 13 -176 245 -236 352 -107 193
-180 378 -237 600 -61 238 -74 351 -74 640 0 229 2 263 28 409 98 561 349
1036 754 1428 408 394 952 647 1502 697 240 22 374 21 585 -5z m85 -534 c386
-30 719 -140 1045 -346 90 -57 124 -86 202 -174 327 -367 514 -795 562 -1284
29 -295 -10 -622 -110 -914 -82 -240 -233 -509 -394 -701 -84 -101 -272 -282
-366 -353 -309 -232 -665 -378 -1054 -433 -134 -20 -444 -19 -583 0 -373 52
-728 198 -1023 419 -251 189 -326 279 -459 550 -187 383 -264 807 -219 1214
72 662 447 1275 1007 1648 224 150 547 284 797 333 234 46 393 57 595 41z
m1525 -752 c288 -333 464 -702 536 -1123 27 -156 36 -432 20 -590 -39 -386
-183 -770 -404 -1080 -111 -157 -345 -397 -487 -502 -382 -280 -792 -426
-1265 -449 -510 -26 -1061 154 -1475 481 -84 66 -195 165 -185 165 3 0 48 -29
100 -64 202 -138 518 -269 774 -320 195 -40 313 -49 524 -43 418 12 763 114
1123 333 340 206 633 516 818 865 133 252 209 483 251 764 21 141 22 447 1
607 -43 340 -185 714 -368 971 -26 37 -45 67 -40 66 4 0 39 -37 77 -81z"/>
<path d="M2390 3580 l0 -800 60 0 60 0 2 609 3 610 206 -607 205 -607 70 -3
70 -3 198 583 c109 321 204 597 211 613 11 25 13 -64 14 -582 l1 -613 60 0 60
0 0 800 0 800 -63 0 -62 0 -229 -662 c-127 -365 -237 -681 -246 -702 l-16 -40
-57 165 c-32 90 -140 405 -241 699 l-184 535 -61 3 -61 3 0 -801z"/>
<path d="M2558 2389 c-16 -6 -31 -22 -37 -41 -15 -42 -15 -644 0 -686 6 -17
22 -35 37 -41 20 -8 155 -11 454 -9 403 3 427 4 447 22 21 19 21 26 21 366 0
327 -1 349 -19 371 l-19 24 -429 2 c-265 1 -438 -2 -455 -8z m856 -45 c12 -5
16 -21 16 -70 l0 -64 -435 0 -435 0 0 58 c0 32 5 63 12 70 9 9 116 12 419 12
224 0 414 -3 423 -6z m14 -431 l-3 -248 -419 -3 c-301 -1 -423 1 -432 9 -11 9
-14 61 -14 250 l0 239 435 0 435 0 -2 -247z"/>
<path d="M2607 2296 c-10 -26 4 -47 27 -44 15 2 21 10 21 28 0 29 -38 41 -48
16z"/>
<path d="M2714 2296 c-9 -24 4 -48 23 -44 12 2 18 12 18 28 0 29 -32 41 -41
16z"/>
<path d="M2815 2289 c-9 -27 7 -43 34 -34 23 7 27 25 9 43 -18 18 -36 14 -43
-9z"/>
<path d="M2982 2088 c-8 -8 -9 -15 -1 -25 9 -10 54 -13 188 -13 178 0 206 5
194 36 -7 19 -362 21 -381 2z"/>
<path d="M2634 1975 c-3 -8 -3 -19 1 -25 10 -16 709 -14 724 3 27 34 -6 37
-366 37 -300 0 -354 -2 -359 -15z"/>
<path d="M2816 1864 c-3 -9 -4 -20 0 -25 3 -5 121 -9 268 -9 267 0 301 5 275
37 -9 10 -68 13 -274 13 -231 0 -264 -2 -269 -16z"/>
<path d="M2634 1755 c-3 -8 -3 -19 1 -25 10 -16 709 -14 724 3 27 34 -6 37
-366 37 -300 0 -354 -2 -359 -15z"/>
</g>
</svg>
